<svg  xmlns="http://www.w3.org/2000/svg" xmlns:xlink="http://www.w3.org/1999/xlink" version="1.1" zoomAndPan="magnify" preserveAspectRatio="xMidYMid meet"  overflow="visible">
<svg id="xxx1" viewBox="0 0 50 42" x="0" y="0" preserveAspectRatio="none" overflow="visible"
>
<g>
<defs><filter id="lsf1" filterUnits="userSpaceOnUse" primitiveUnits="userSpaceOnUse" x="0" y="0" width="50" height="42"><feFlood flood-color="black" flood-opacity="1" result="lsfa1"/><feComposite in="lsfa1" in2="SourceGraphic" operator="in" result="lsfb1"/><feGaussianBlur in="lsfb1" stdDeviation=".21" result="lsfc1"/><feOffset in="lsfc1" dx=".21" dy=".21"  result="lsfd1"/><feMerge><feMergeNode in="lsfd1"/><feMergeNode in="SourceGraphic"/></feMerge></filter><path id="P2" d="M27.999,17.997L30.999,17.996L30.999,20.996L38.958,20.999L39.113,20.83L39.531,20.576L39.678,20.635L40.269,20.539L40.442,20.664L40.728,20.635L41.009,20.741L41.054,20.84L41.276,20.939L41.278,21.096L41.394,21.177L41.595,20.927L42.01,20.905L42.076,20.708L41.978,20.503L42.489,20.253L42.75,20.364L42.881,20.31L43.109,20.357L43.177,20.25
L43.534,20.177L43.261,19.483L43.067,19.308L43.119,19.232L43.048,19.193L43.116,19.085L43.066,18.918L43.151,18.802L43.07,18.254L43.18,17.951L43.074,17.828L43.039,17.956L43.008,17.918L43.021,17.829L42.88,17.584L42.947,17.46L42.901,17.304L42.676,17.244L42.493,16.986L42.478,16.84L42.093,16.566L41.767,16.018L41.624,15.975L41.667,16.067L41.518,16.07L41.172,15.814L41.022,15.574L40.926,15.623L40.783,15.507L40.85,15.507L40.828,15.257L40.751,15.132L40.832,14.684L40.784,14.532L40.744,14.624L40.667,14.523L40.741,14.473L40.679,14.363L40.54,14.351L40.607,14.591L40.218,14.393L40.06,14.136L40.001,14.144L39.915,14.316L40.031,14.619L39.811,14.382L39.664,14.511L39.747,14.386L39.559,14.299L39.603,14.272L39.435,13.752L39.484,13.531L39.294,13.507L39.313,13.358L39.195,13.212L39.23,13.073L38.851,12.859L38.661,12.587
L38.784,12.446L38.906,12.534L38.769,12.236L38.681,12.278L38.564,12.078L38.342,12.153L38.237,12.054L38.26,11.977L38.08,11.882L37.929,11.916L37.85,11.735L37.755,11.709L37.774,11.833L37.672,11.828L37.539,11.7L37.563,11.556L37.427,11.325L37.443,11.421L37.159,11.413L37.067,11.347L37.04,11.207L36.899,11.305L36.774,11.189L36.563,11.143L36.284,10.881L36.345,10.559L36.218,10.497L36.016,10.245L36.135,9.607L35.889,9.058L35.956,8.906L35.765,8.908L35.406,8.435L35.482,8.273L35.47,8.075L35.239,7.44L35.343,7.229L35.268,7.257L35.238,7.138L35.35,6.982L35.231,6.832L35.024,6.795L34.888,6.61L34.624,6.484L34.596,6.261L34.491,6.166L34.338,6.305L34.196,6.261L34.168,6.381L34.029,6.481L33.79,6.411L33.681,6.015L33.532,5.755L33.596,5.444L33.503,5.11L33.544,4.843L33.376,4.922L33.422,4.639L33.275,4.514L33.274,4.407L33.085,4.348
L33.094,4.157L33.228,3.988L33.098,3.892L32.978,3.934L32.856,3.844L32.869,3.382L32.788,3.247L32.788,3.082L32.617,2.892L32.559,2.876L32.501,2.956L32.605,2.75L32.544,2.712L32.446,2.717L32.334,2.89L32.126,2.981L32.122,3.365L31.942,3.946L32.015,4.042L31.925,4.078L31.901,3.956L31.86,3.974L31.591,4.562L31.695,4.557L31.657,4.468L31.714,4.464L31.693,4.515L31.82,4.601L31.938,4.56L31.859,4.638L31.923,4.891L31.887,4.729L31.804,4.679L31.74,4.854L31.598,4.962L31.693,5.247L31.654,5.339L31.735,5.381L31.722,5.431L31.628,5.374L31.47,5.849L31.6,6.114L31.526,6.487L31.661,7.049L31.435,7.658L31.432,8.074L31.296,8.497L30.974,8.97L30.845,9.438L30.385,9.678L30.024,9.719L29.238,9.32L29.158,9.029L28.997,8.891L28.289,8.733L27.995,8.539L27.999,17.997z"/><path id="P3" d="M19.001,6.879L19.002,17.979L27.999,17.997L27.995,8.539
L27.73,8.232L27.351,8.115L27.003,7.877L26.914,7.898L26.947,7.933L26.73,7.932L26.619,7.766L26.29,7.572L26.215,7.403L25.503,6.988L25.388,6.74L25.527,6.65L25.719,6.285L25.885,6.178L26.016,5.828L26.055,5.681L25.889,5.728L25.919,5.682L25.837,5.572L25.883,5.425L25.961,5.446L25.909,5.287L25.981,5.226L26.037,5.299L26.128,5.131L26.201,5.247L26.227,5.147L26.366,5.058L26.336,5.324L26.48,5.185L26.567,5.059L26.501,4.995L26.631,5.017L26.636,4.954L26.468,4.794L26.585,4.77L26.587,4.822L26.755,4.57L26.726,4.482L26.779,4.449L26.762,4.526L26.805,4.506L26.977,4.351L26.901,4.248L26.751,4.164L26.702,4.191L26.742,4.272L26.648,4.27L26.47,3.965L26.582,3.903L26.167,4.164L26.363,4.248L26.275,4.428L26.176,4.467L26.045,4.474L25.972,4.377L26.034,4.269L25.932,4.236L26.028,4.09L25.685,4.249L25.673,4.148L25.885,3.982L25.654,4.04
L25.348,4.242L25.208,4.235L25.219,4.289L25.056,4.264L24.842,4.112L24.758,3.952L24.482,4.073L24.25,3.99L24.192,4.102L24.136,3.92L23.842,3.88L23.927,3.766L23.812,3.73L23.611,3.843L23.54,3.77L23.186,3.723L22.918,3.332L22.872,3.33L22.896,3.426L22.85,3.393L22.673,3.517L22.434,3.211L22.397,3.299L22.357,3.149L22.265,3.213L22.287,3.263L22.143,3.126L22.208,3.413L22.01,3.13L21.93,3.26L21.91,3.206L21.831,3.223L21.855,3.277L21.769,3.302L21.961,3.348L21.94,3.392L22.041,3.42L22.107,3.532L22.353,3.441L22.499,3.488L22.548,3.609L22.659,3.646L22.581,3.786L22.648,3.858L22.623,4.069L22.748,4.139L22.561,4.087L22.442,4.146L22.446,4.311L22.375,4.381L22.398,4.277L22.263,4.177L22.021,4.297L21.904,4.233L21.427,4.275L21.323,4.193L21.302,4.044L21.233,4.195L20.996,4.169L21.041,4.353L20.848,4.392L20.832,4.443L20.943,4.525
L20.872,4.523L20.885,4.575L20.956,4.621L20.874,4.607L20.768,4.447L20.607,4.396L20.548,4.627L20.678,4.721L20.411,4.656L20.303,4.917L20.141,4.933L20.131,5.177L20.324,5.358L20.23,5.345L19.993,5.536L19.897,5.441L19.719,6.015L19.533,6.056L19.369,6.334L19.451,6.504L19.669,6.58L19.779,6.538L19.649,6.674L19.707,6.777L19.94,6.77L19.803,6.858L19.658,6.836L19.619,6.949L19.652,7.099L19.81,7.214L19.942,7.453L19.845,7.409L19.786,7.196L19.571,7.154L19.601,7.102L19.48,6.939L19.292,6.857L19.21,7.159L19.189,6.987L19.001,6.879z"/><path id="P4" d="M13.583,8.261L13.706,8.37L13.5,8.409L13.642,8.472L13.461,8.508L13.512,8.598L13.589,8.538L13.506,8.645L13.789,8.908L13.95,8.847L13.82,8.998L13.829,9.133L13.915,9.206L13.601,9.011L13.645,9.183L13.575,9.386L13.593,9.574L12.989,8.597L13.039,8.359L12.901,8.435L12.775,8.587
L12.734,8.778L12.581,8.764L12.534,8.837L12.57,8.929L12.364,9.001L12.162,9.342L12.191,9.986L12.352,9.975L12.364,10.127L11.947,10.439L11.792,10.483L11.729,10.576L11.788,10.654L11.627,10.708L11.645,10.796L11.511,11.094L11.128,11.528L10.631,11.77L10.196,11.914L9.765,11.956L9.577,12.076L9.119,11.962L8.825,12.277L8.161,12.358L7.71,12.686L7.274,12.723L7.181,12.597L6.9,12.724L6.794,12.663L6.868,12.526L6.811,12.529L6.463,12.822L6.223,12.844L6.188,12.968L5.933,13.077L5.823,13.247L5.621,13.343L5.486,13.505L4.675,13.828L4.372,14.49L4.309,14.435L4.158,14.524L4.122,14.474L4.182,14.344L4.085,14.191L4.177,13.827L4.161,13.786L4.024,13.851L3.654,14.583L3.826,14.956L3.76,15.121L3.777,15.481L3.613,15.631L3.47,15.899L3.407,16.484L3.623,16.746L3.665,17.018L3.846,17.245L4.004,17.619L4.267,17.888L4.258,17.989L4.198,18.006
L4.239,18.288L4.086,18.468L3.981,18.354L3.906,17.959L3.762,18.202L3.701,18.132L3.758,17.905L3.519,17.528L3.416,17.683L3.574,18.086L3.884,18.341L3.876,18.522L3.692,18.658L3.633,18.488L3.589,18.56L3.556,18.353L3.539,18.314L3.504,18.467L3.364,18.017L3.366,18.238L3.322,18.261L3.306,18.028L3.274,18.189L3.162,18.144L3.965,19.231L4.145,19.627L4.105,19.85L4.173,20.11L4.555,20.533L4.637,20.877L4.871,21.115L4.995,21.485L4.955,22.049L5.102,22.602L5.75,23.842L5.719,24.553L5.771,24.637L5.691,24.684L5.724,24.778L5.647,24.647L5.713,24.559L5.606,24.683L5.68,25.279L5.365,25.641L5.122,25.623L5.034,25.544L4.989,25.745L5.029,26.249L5.135,26.368L5.264,26.306L5.437,26.351L5.836,26.614L6.005,26.814L6.475,27.001L7.151,27.062L7.447,26.97L7.447,27.022L7.35,27.02L7.641,27.135L7.687,27.044L7.951,27.128L8.001,27.105L7.869,27.058
L7.944,27.001L8.403,26.918L8.45,26.755L8.722,26.657L8.76,26.541L8.923,26.459L9.241,26.535L9.301,26.448L9.372,26.485L9.421,26.372L9.549,26.39L9.501,26.304L9.621,26.12L10.043,25.924L10.437,25.972L10.593,25.887L11.399,25.82L11.79,25.909L12.001,25.829L12.143,26.014L12.364,25.914L12.581,25.949L12.6,25.9L13.016,25.859L13.134,25.904L13.173,25.993L13.358,25.899L13.553,25.928L13.976,25.559L14.108,25.162L14.305,24.981L14.814,24.873L15.951,24.291L16.203,24.232L16.939,24.299L17.521,24.213L18.642,23.851L18.963,23.694L19.001,23.599L19.001,6.879L18.543,6.77L18.393,6.804L18.412,6.923L18.315,6.926L18.196,7.081L18.297,7.394L18.128,7.184L18.096,7.467L17.879,7.605L18.079,7.43L18.075,7.1L18.194,6.738L18.002,6.563L17.963,6.59L17.43,5.967L17.242,5.902L17.142,5.982L17.051,5.809L16.963,5.743L16.851,5.758L16.758,5.826
L16.902,5.987L16.708,5.976L16.737,6.07L16.645,6.185L16.454,6.096L16.539,5.964L16.342,6.045L16.35,6.177L16.227,6.221L16.225,6.026L16.128,6.014L16.161,5.921L16.013,5.929L16.096,6.018L16.022,5.997L15.993,6.068L16.158,6.148L16.033,6.374L16.051,6.53L15.95,6.524L15.886,6.627L15.813,6.448L15.677,6.454L15.722,6.29L15.59,6.247L15.576,6.559L15.52,6.5L15.428,6.602L15.362,6.512L15.143,6.75L15.209,6.862L15.304,6.877L15.218,6.941L15.372,7.009L15.371,7.109L15.459,7.135L15.183,7.132L15.093,6.987L15.029,6.984L15.048,7.077L14.841,7.16L14.879,7.261L15.054,7.169L14.894,7.273L14.895,7.327L15.09,7.319L15.037,7.485L14.705,7.253L14.672,7.453L14.449,7.5L14.392,7.746L14.49,7.988L14.636,7.789L14.71,7.84L14.629,7.882L14.588,8.122L14.493,8.138L14.444,8.068L14.413,8.356L14.921,8.412L14.451,8.409L14.38,8.352L14.353,8.458
L14.124,8.28L13.932,8.222L13.977,8.343L13.894,8.326L13.862,8.437L13.879,8.355L13.741,8.263L13.802,8.219L13.728,8.142L13.586,8.165L13.583,8.261z"/><path id="P5" d="M19.585,6.614L19.598,6.674L19.728,6.615L19.585,6.614z"/><path id="P6" d="M14.392,7.332L14.455,7.271L14.35,7.296L14.392,7.332z"/><path id="P7" d="M28.957,27.558L29.487,28.003L29.79,28.473L29.863,28.769L29.702,28.938L29.829,29.305L30.124,29.534L30.422,29.931L30.661,30.057L30.966,30.056L30.999,17.996L19.002,17.999L19.001,23.688L19.938,23.589L20.806,23.606L21.187,23.472L21.759,23.72L22.201,24.026L22.47,24.03L22.483,23.944L22.783,23.96L23.274,24.194L23.486,24.196L23.415,24.145L23.458,24.105L23.535,24.166L23.635,24.098L23.679,24.203L23.931,24.363L23.846,24.507L24.164,24.471L24.265,24.571L24.231,24.781L24.064,24.716L24.138,24.832L24.081,24.927
L24.181,24.934L24.203,25.002L24.139,25.019L24.232,25.045L24.313,25.184L24.35,25.147L24.265,25.032L24.369,25.176L24.613,25.223L24.596,25.139L24.707,25.181L24.674,25.237L24.845,25.437L24.84,25.593L25.253,25.983L25.241,26.149L25.349,26.274L25.389,26.595L25.511,26.599L25.363,26.621L25.213,26.459L25.126,26.568L25.279,26.571L25.324,26.686L25.477,26.747L25.62,26.939L25.751,26.857L25.943,27.003L26.014,26.755L25.788,26.811L25.892,26.746L25.855,26.666L25.928,26.548L26.057,26.479L26.092,26.523L26.141,26.341L26.443,26.007L26.95,25.756L26.898,25.767L26.933,25.673L26.993,25.722L27.215,25.659L27.444,25.158L27.629,24.965L27.785,24.996L27.759,24.559L27.804,24.555L27.921,24.751L27.95,25.008L28.042,25.081L27.817,25.246L27.935,25.582L27.641,25.832L27.541,26.095L27.46,26.132L27.5,26.308L27.422,26.47L27.487,26.482
L27.51,26.626L27.459,26.88L27.374,26.953L27.276,26.893L27.049,26.902L26.828,27.248L27.174,27.238L27.423,27.098L27.68,27.169L27.735,27.13L27.889,26.504L28.068,26.147L28.553,26.802L28.476,26.856L28.518,27.032L28.44,27.35L28.095,27.601L28.233,27.659L28.495,27.634L28.632,27.543L28.927,27.566z"/><path id="P8" d="M38.958,20.999L30.999,20.999L31.025,26.049L31.207,26.061L31.524,26.206L31.675,26.101L32.041,26.1L32.22,26.18L32.284,26.324L32.368,26.326L32.365,26.451L32.51,26.749L32.639,26.779L32.698,26.6L32.792,26.551L32.875,26.673L33.351,26.794L33.324,26.979L33.387,27.183L33.563,27.202L33.618,27.382L33.764,27.396L34.106,27.59L34.484,27.948L34.786,28.126L34.866,28.059L34.98,28.073L34.923,27.989L34.968,27.871L35.115,27.82L35.342,27.862L35.525,27.807L35.679,27.927L35.954,27.96L35.983,28.012L36.367,28.05
L36.419,27.973L36.614,27.972L36.944,28.102L37.106,28.029L37.322,28.063L37.494,27.943L37.912,27.995L38.01,28.136L38.039,28.39L38.134,28.566L38.219,28.6L38.1,28.79L39.959,29.498L39.943,29.283L40.052,29.263L40.002,29.142L39.873,29.092L39.943,29.018L39.903,28.919L40.148,28.266L40.151,27.888L40.237,27.789L40.182,27.706L40.278,27.72L40.568,27.195L40.702,27.123L40.673,27.037L40.745,27.004L40.834,27.074L40.749,26.886L40.889,26.598L40.924,26.324L41.214,26.041L41.163,25.953L41.248,26.001L41.264,25.958L41.286,25.846L41.179,25.851L41.274,25.811L41.343,25.625L41.228,25.546L41.34,25.512L41.363,25.436L41.363,25.522L41.429,25.493L41.505,25.352L41.445,25.305L41.508,25.225L41.552,25.232L41.512,25.325L41.563,25.294L41.621,25.198L41.647,25.113L41.567,25.174L41.519,25.115L41.599,24.997L41.644,24.976L41.646,25.077
L41.824,24.87L42.175,24.755L41.954,24.681L42.158,24.683L42.539,24.445L42.571,24.214L42.507,24.218L42.513,24.316L42.439,24.205L42.748,23.845L42.941,23.472L43.09,22.924L43.003,22.794L43.035,22.49L43.275,21.893L43.364,21.505L43.343,21.316L43.608,20.808L43.635,20.642L43.555,20.532L43.587,20.258L43.477,20.157L43.389,20.235L43.189,20.248L43.109,20.357L42.881,20.31L42.75,20.364L42.463,20.261L42.388,20.368L41.978,20.503L42.052,20.682L42.023,20.889L41.851,20.908L41.831,20.962L41.733,20.874L41.595,20.927L41.358,21.172L41.246,20.926L41.054,20.84L41.026,20.755L40.751,20.635L40.442,20.664L40.296,20.538L39.678,20.635L39.588,20.573L39.462,20.592L39.081,20.842L38.958,20.999zM39.019,27.184L39.139,27.128L39.395,27.303L39.154,27.41L39.049,27.92L38.91,27.853L38.887,27.719L38.863,27.758L38.768,27.647L38.794,27.339
L39.001,27.195z"/><path id="P9" d="M36.285,31.009L36.352,31.125L36.423,31.126L36.479,30.797L36.292,30.901L36.189,30.738L36.228,30.701L36.888,30.631L37.623,30.049L37.95,29.895L37.464,30.073L37.701,29.934L37.657,29.848L39.276,29.803L39.677,29.685L39.759,29.547L39.724,29.513L39.976,29.505L38.128,28.796L38.219,28.6L38.134,28.566L38.039,28.39L38.038,28.141L37.912,27.995L37.709,27.929L37.553,28.004L37.403,27.947L37.322,28.063L37.106,28.029L37.041,28.117L36.522,27.963L36.184,28.04L35.812,27.983L35.525,27.807L35.36,27.861L35.123,27.821L34.966,27.905L34.923,27.989L34.985,28.066L34.786,28.126L34.518,27.995L34.374,27.791L33.96,27.505L33.618,27.382L33.565,27.237L33.416,27.194L33.357,27.101L33.347,26.806L33.273,26.752L32.891,26.679L32.81,26.558L32.698,26.6L32.639,26.779L32.526,26.758L32.458,26.575L32.375,26.533
L32.399,26.339L32.284,26.324L32.244,26.209L31.735,26.092L31.508,26.192L30.963,25.98L30.966,30.056L31.273,30.202L31.407,30.397L31.623,30.403L31.739,30.253L32.145,30.39L32.378,30.351L33.234,30.767L33.358,30.755L33.554,30.855L34.066,30.469L34.428,30.282L34.615,30.292L34.708,30.131L34.475,30.164L34.382,30.097L34.506,30.089L34.913,29.843L35.081,30.005L35.118,30.143L34.951,30.335L34.815,30.365L34.686,30.304L34.884,30.491L35.22,30.407L35.198,30.308L35.296,30.215L35.452,30.219L35.541,30.385L35.422,30.409L35.372,30.52L35.607,30.678L35.82,30.648L35.846,30.693L35.742,30.648L35.917,30.878L36.107,30.823L36.273,30.98z"/><path id="P10" d="M40.593,27.184L40.695,27.2L40.765,27.125L40.594,27.144z"/><path id="P11" d="M39.019,27.184L38.81,27.307L38.768,27.647L38.856,27.754L38.878,27.715L38.91,27.853L39.049,27.92
L39.154,27.41L39.248,27.33L39.395,27.327L39.139,27.128L39.019,27.184z"/><path id="P12" d="M36.85,35.637L37.082,35.292L36.96,35.159L36.993,35.129L37.032,35.211L37.085,35.165L37.147,35.272L37.261,35.223L37.27,35.021L37.316,35.059L37.358,34.909L37.229,34.746L37.446,34.908L37.471,35.014L37.416,35.049L37.551,34.986L37.502,34.891L37.591,34.836L37.444,34.789L37.536,34.775L37.642,34.889L37.813,34.931L37.86,35.027L37.775,35.047L37.681,34.934L37.623,35.065L37.713,35.101L37.711,35.183L37.874,35.207L37.856,35.123L38.003,35.227L37.926,35.019L37.999,34.913L37.906,34.842L37.82,34.895L37.947,34.728L37.881,34.567L38.012,34.509L37.981,34.405L38.073,34.114L38.275,34.115L38.29,34.261L38.355,34.196L38.264,33.807L38.32,33.615L38.267,33.46L38.359,33.28L38.27,33.193L38.333,32.997L38.217,32.846L37.977,32.741L37.883,32.872
L37.671,32.827L37.444,33.001L37.25,32.953L36.829,33.043L36.823,33.125L37.044,33.32L36.987,33.321L36.924,33.172L36.769,33.079L36.57,33.148L36.584,33.221L36.545,33.127L36.201,33.151L35.344,32.851L35.261,32.712L35.12,32.835L34.694,32.663L34.714,32.85L34.613,32.944L34.921,33.714L35.247,34.039L35.266,34.221L35.348,34.169L35.432,34.314L35.547,34.361L35.48,34.429L35.197,34.198L35.29,34.617L35.454,34.892L35.687,35.066L35.852,35.293L35.977,35.233L35.932,35.371L36.037,35.558L36.225,35.492L36.834,35.616z"/></defs><g id="G1E" fill-rule="nonzero" stroke-linejoin="miter" opacity=".8" stroke="black" stroke-width=".084" fill="none" filter="url(#lsf1)" display="inline"><use xlink:href="#P2" id="E2E" /><use xlink:href="#P3" id="E3E"/>
<use xlink:href="#P4" id="E4E"/><use xlink:href="#P5" id="E5E" /><use xlink:href="#P6" id="E6E"/><use xlink:href="#P7" id="E7E"/><use xlink:href="#P8" id="E8E"/><use xlink:href="#P9" id="E9E"/><use xlink:href="#P10" id="E10E"/><use xlink:href="#P11" id="E11E"/><use xlink:href="#P12" id="E12E"/>
</g><g id="G1" fill-rule="nonzero" stroke-linejoin="miter" opacity=".8" stroke="lightgreen" stroke-width=".084" fill="none" display="inline"><use xlink:href="#P2" id="E2"/><use xlink:href="#P3" id="E3"/><use xlink:href="#P4" id="E4"/><use xlink:href="#P5" id="E5"/><use xlink:href="#P6" id="E6"/><use xlink:href="#P7" id="E7" /><use xlink:href="#P8" id="E8"/>
<use xlink:href="#P9" id="E9"/><use xlink:href="#P10" id="E10"/><use xlink:href="#P11" id="E11"/><use xlink:href="#P12" id="E12"/></g><g id="L1" pointer-events="none" text-anchor="middle" opacity=".8" font-size=".84" fill="blue" stroke="none" display="inline"><text id="E2L" x="35.7645" y="12.2805">Queensland</text><text id="E3L" x="23.5" y="10.8975">Northern Territory</text><text id="E4L" x="11.0815" y="16.775">Western Australia</text><text id="E5L" x="19.6565" y="6.98">Northern Territory</text><text id="E7L" x="25" y="24.3625">South Australia</text>
<text id="E8L" x="37.317" y="25.1635">New South Wales</text><text id="E9L" x="35.4695" y="28.889">Victoria</text><text id="E10L" x="40.679" y="27.4985">Jervis Bay Territory</text><text id="E11L" x="39.0815" y="27.86">Australian Capital Territory</text><text id="E12L" x="36.486" y="34.486">Tasmania</text></g></g></svg>
</svg>


